<svg width="500" height="500" xmlns="http://www.w3.org/2000/svg">
<rect width="500" height="500" fill="white" />
<line x1="20.000000" y1="20.000000" x2="480.000000" y2="20.000000" stroke="rgb(0,0,0)" stroke-width="4" />
<line x1="480.000000" y1="20.000000" x2="480.000000" y2="476.000000" stroke="rgb(0,0,0)" stroke-width="4" />
<line x1="480.000000" y1="476.000000" x2="28.000000" y2="476.000000" stroke="rgb(0,0,0)" stroke-width="4" />
<line x1="28.000000" y1="476.000000" x2="28.000000" y2="28.000000" stroke="rgb(0,0,0)" stroke-width="4" />
<line x1="28.000000" y1="28.000000" x2="472.000000" y2="28.000000" stroke="rgb(0,0,0)" stroke-width="4" />
<line x1="472.000000" y1="28.000000" x2="472.000000" y2="468.000000" stroke="rgb(0,0,0)" stroke-width="4" />
<line x1="472.000000" y1="468.000000" x2="36.000000" y2="468.000000" stroke="rgb(0,0,0)" stroke-width="4" />
<line x1="36.000000" y1="468.000000" x2="36.000000" y2="36.000000" stroke="rgb(0,0,0)" stroke-width="4" />
<line x1="36.000000" y1="36.000000" x2="464.000000" y2="36.000000" stroke="rgb(0,0,0)" stroke-width="4" />
<line x1="464.000000" y1="36.000000" x2="464.000000" y2="460.000000" stroke="rgb(0,0,0)" stroke-width="4" />
<line x1="464.000000" y1="460.000000" x2="44.000000" y2="460.000000" stroke="rgb(0,0,0)" stroke-width="4" />
<line x1="44.000000" y1="460.000000" x2="44.000000" y2="44.000000" stroke="rgb(0,0,0)" stroke-width="4" />
<line x1="44.000000" y1="44.000000" x2="456.000000" y2="44.000000" stroke="rgb(0,0,0)" stroke-width="4" />
<line x1="456.000000" y1="44.000000" x2="456.000000" y2="452.000000" stroke="rgb(0,0,0)" stroke-width="4" />
<line x1="456.000000" y1="452.000000" x2="52.000000" y2="452.000000" stroke="rgb(0,0,0)" stroke-width="4" />
<line x1="52.000000" y1="452.000000" x2="52.000000" y2="52.000000" stroke="rgb(0,0,0)" stroke-width="4" />
<line x1="52.000000" y1="52.000000" x2="448.000000" y2="52.000000" stroke="rgb(0,0,0)" stroke-width="3" />
<line x1="448.000000" y1="52.000000" x2="448.000000" y2="444.000000" stroke="rgb(0,0,0)" stroke-width="3" />
<line x1="448.000000" y1="444.000000" x2="60.000000" y2="444.000000" stroke="rgb(0,0,0)" stroke-width="3" />
<line x1="60.000000" y1="444.000000" x2="60.000000" y2="60.000000" stroke="rgb(0,0,0)" stroke-width="3" />
<line x1="60.000000" y1="60.000000" x2="440.000000" y2="60.000000" stroke="rgb(0,0,0)" stroke-width="3" />
<line x1="440.000000" y1="60.000000" x2="440.000000" y2="436.000000" stroke="rgb(0,0,0)" stroke-width="3" />
<line x1="440.000000" y1="436.000000" x2="68.000000" y2="436.000000" stroke="rgb(0,0,0)" stroke-width="3" />
<line x1="68.000000" y1="436.000000" x2="68.000000" y2="68.000000" stroke="rgb(0,0,0)" stroke-width="3" />
<line x1="68.000000" y1="68.000000" x2="432.000000" y2="68.000000" stroke="rgb(0,0,0)" stroke-width="3" />
<line x1="432.000000" y1="68.000000" x2="432.000000" y2="428.000000" stroke="rgb(0,0,0)" stroke-width="3" />
<line x1="432.000000" y1="428.000000" x2="76.000000" y2="428.000000" stroke="rgb(0,0,0)" stroke-width="3" />
<line x1="76.000000" y1="428.000000" x2="76.000000" y2="76.000000" stroke="rgb(0,0,0)" stroke-width="3" />
<line x1="76.000000" y1="76.000000" x2="424.000000" y2="76.000000" stroke="rgb(0,0,0)" stroke-width="3" />
<line x1="424.000000" y1="76.000000" x2="424.000000" y2="420.000000" stroke="rgb(0,0,0)" stroke-width="3" />
<line x1="424.000000" y1="420.000000" x2="84.000000" y2="420.000000" stroke="rgb(0,0,0)" stroke-width="3" />
<line x1="84.000000" y1="420.000000" x2="84.000000" y2="84.000000" stroke="rgb(0,0,0)" stroke-width="3" />
<line x1="84.000000" y1="84.000000" x2="416.000000" y2="84.000000" stroke="rgb(0,0,0)" stroke-width="3" />
<line x1="416.000000" y1="84.000000" x2="416.000000" y2="412.000000" stroke="rgb(0,0,0)" stroke-width="3" />
<line x1="416.000000" y1="412.000000" x2="92.000000" y2="412.000000" stroke="rgb(0,0,0)" stroke-width="3" />
<line x1="92.000000" y1="412.000000" x2="92.000000" y2="92.000000" stroke="rgb(0,0,0)" stroke-width="3" />
<line x1="92.000000" y1="92.000000" x2="408.000000" y2="92.000000" stroke="rgb(0,0,0)" stroke-width="3" />
<line x1="408.000000" y1="92.000000" x2="408.000000" y2="404.000000" stroke="rgb(0,0,0)" stroke-width="3" />
<line x1="408.000000" y1="404.000000" x2="100.000000" y2="404.000000" stroke="rgb(0,0,0)" stroke-width="3" />
<line x1="100.000000" y1="404.000000" x2="100.000000" y2="100.000000" stroke="rgb(0,0,0)" stroke-width="3" />
<line x1="100.000000" y1="100.000000" x2="400.000000" y2="100.000000" stroke="rgb(0,0,0)" stroke-width="3" />
<line x1="400.000000" y1="100.000000" x2="400.000000" y2="396.000000" stroke="rgb(0,0,0)" stroke-width="2" />
<line x1="400.000000" y1="396.000000" x2="108.000000" y2="396.000000" stroke="rgb(0,0,0)" stroke-width="2" />
<line x1="108.000000" y1="396.000000" x2="108.000000" y2="108.000000" stroke="rgb(0,0,0)" stroke-width="2" />
<line x1="108.000000" y1="108.000000" x2="392.000000" y2="108.000000" stroke="rgb(0,0,0)" stroke-width="2" />
<line x1="392.000000" y1="108.000000" x2="392.000000" y2="388.000000" stroke="rgb(0,0,0)" stroke-width="2" />
<line x1="392.000000" y1="388.000000" x2="116.000000" y2="388.000000" stroke="rgb(0,0,0)" stroke-width="2" />
<line x1="116.000000" y1="388.000000" x2="116.000000" y2="116.000000" stroke="rgb(0,0,0)" stroke-width="2" />
<line x1="116.000000" y1="116.000000" x2="384.000000" y2="116.000000" stroke="rgb(0,0,0)" stroke-width="2" />
<line x1="384.000000" y1="116.000000" x2="384.000000" y2="380.000000" stroke="rgb(0,0,0)" stroke-width="2" />
<line x1="384.000000" y1="380.000000" x2="124.000000" y2="380.000000" stroke="rgb(0,0,0)" stroke-width="2" />
<line x1="124.000000" y1="380.000000" x2="124.000000" y2="124.000000" stroke="rgb(0,0,0)" stroke-width="2" />
<line x1="124.000000" y1="124.000000" x2="376.000000" y2="124.000000" stroke="rgb(0,0,0)" stroke-width="2" />
<line x1="376.000000" y1="124.000000" x2="376.000000" y2="372.000000" stroke="rgb(0,0,0)" stroke-width="2" />
<line x1="376.000000" y1="372.000000" x2="132.000000" y2="372.000000" stroke="rgb(0,0,0)" stroke-width="2" />
<line x1="132.000000" y1="372.000000" x2="132.000000" y2="132.000000" stroke="rgb(0,0,0)" stroke-width="2" />
<line x1="132.000000" y1="132.000000" x2="368.000000" y2="132.000000" stroke="rgb(0,0,0)" stroke-width="2" />
<line x1="368.000000" y1="132.000000" x2="368.000000" y2="364.000000" stroke="rgb(0,0,0)" stroke-width="2" />
<line x1="368.000000" y1="364.000000" x2="140.000000" y2="364.000000" stroke="rgb(0,0,0)" stroke-width="2" />
<line x1="140.000000" y1="364.000000" x2="140.000000" y2="140.000000" stroke="rgb(0,0,0)" stroke-width="2" />
<line x1="140.000000" y1="140.000000" x2="360.000000" y2="140.000000" stroke="rgb(0,0,0)" stroke-width="2" />
<line x1="360.000000" y1="140.000000" x2="360.000000" y2="356.000000" stroke="rgb(0,0,0)" stroke-width="2" />
<line x1="360.000000" y1="356.000000" x2="148.000000" y2="356.000000" stroke="rgb(0,0,0)" stroke-width="2" />
<line x1="148.000000" y1="356.000000" x2="148.000000" y2="148.000000" stroke="rgb(0,0,0)" stroke-width="2" />
<line x1="148.000000" y1="148.000000" x2="352.000000" y2="148.000000" stroke="rgb(0,0,0)" stroke-width="2" />
<line x1="352.000000" y1="148.000000" x2="352.000000" y2="348.000000" stroke="rgb(0,0,0)" stroke-width="2" />
<line x1="352.000000" y1="348.000000" x2="156.000000" y2="348.000000" stroke="rgb(0,0,0)" stroke-width="1" />
<line x1="156.000000" y1="348.000000" x2="156.000000" y2="156.000000" stroke="rgb(0,0,0)" stroke-width="1" />
<line x1="156.000000" y1="156.000000" x2="344.000000" y2="156.000000" stroke="rgb(0,0,0)" stroke-width="1" />
<line x1="344.000000" y1="156.000000" x2="344.000000" y2="340.000000" stroke="rgb(0,0,0)" stroke-width="1" />
<line x1="344.000000" y1="340.000000" x2="164.000000" y2="340.000000" stroke="rgb(0,0,0)" stroke-width="1" />
<line x1="164.000000" y1="340.000000" x2="164.000000" y2="164.000000" stroke="rgb(0,0,0)" stroke-width="1" />
<line x1="164.000000" y1="164.000000" x2="336.000000" y2="164.000000" stroke="rgb(0,0,0)" stroke-width="1" />
<line x1="336.000000" y1="164.000000" x2="336.000000" y2="332.000000" stroke="rgb(0,0,0)" stroke-width="1" />
<line x1="336.000000" y1="332.000000" x2="172.000000" y2="332.000000" stroke="rgb(0,0,0)" stroke-width="1" />
<line x1="172.000000" y1="332.000000" x2="172.000000" y2="172.000000" stroke="rgb(0,0,0)" stroke-width="1" />
<line x1="172.000000" y1="172.000000" x2="328.000000" y2="172.000000" stroke="rgb(0,0,0)" stroke-width="1" />
<line x1="328.000000" y1="172.000000" x2="328.000000" y2="324.000000" stroke="rgb(0,0,0)" stroke-width="1" />
<line x1="328.000000" y1="324.000000" x2="180.000000" y2="324.000000" stroke="rgb(0,0,0)" stroke-width="1" />
<line x1="180.000000" y1="324.000000" x2="180.000000" y2="180.000000" stroke="rgb(0,0,0)" stroke-width="1" />
<line x1="180.000000" y1="180.000000" x2="320.000000" y2="180.000000" stroke="rgb(0,0,0)" stroke-width="1" />
<line x1="320.000000" y1="180.000000" x2="320.000000" y2="316.000000" stroke="rgb(0,0,0)" stroke-width="1" />
<line x1="320.000000" y1="316.000000" x2="188.000000" y2="316.000000" stroke="rgb(0,0,0)" stroke-width="1" />
<line x1="188.000000" y1="316.000000" x2="188.000000" y2="188.000000" stroke="rgb(0,0,0)" stroke-width="1" />
<line x1="188.000000" y1="188.000000" x2="312.000000" y2="188.000000" stroke="rgb(0,0,0)" stroke-width="1" />
<line x1="312.000000" y1="188.000000" x2="312.000000" y2="308.000000" stroke="rgb(0,0,0)" stroke-width="1" />
<line x1="312.000000" y1="308.000000" x2="196.000000" y2="308.000000" stroke="rgb(0,0,0)" stroke-width="1" />
<line x1="196.000000" y1="308.000000" x2="196.000000" y2="196.000000" stroke="rgb(0,0,0)" stroke-width="1" />
<line x1="196.000000" y1="196.000000" x2="304.000000" y2="196.000000" stroke="rgb(0,0,0)" stroke-width="1" />
<line x1="304.000000" y1="196.000000" x2="304.000000" y2="300.000000" stroke="rgb(0,0,0)" stroke-width="1" />
<line x1="304.000000" y1="300.000000" x2="204.000000" y2="300.000000" stroke="rgb(0,0,0)" stroke-width="1" />
<line x1="204.000000" y1="300.000000" x2="204.000000" y2="204.000000" stroke="rgb(0,0,0)" stroke-width="1" />
<line x1="204.000000" y1="204.000000" x2="296.000000" y2="204.000000" stroke="rgb(0,0,0)" stroke-width="1" />
<line x1="296.000000" y1="204.000000" x2="296.000000" y2="292.000000" stroke="rgb(0,0,0)" stroke-width="1" />
<line x1="296.000000" y1="292.000000" x2="212.000000" y2="292.000000" stroke="rgb(0,0,0)" stroke-width="1" />
<line x1="212.000000" y1="292.000000" x2="212.000000" y2="212.000000" stroke="rgb(0,0,0)" stroke-width="1" />
<line x1="212.000000" y1="212.000000" x2="288.000000" y2="212.000000" stroke="rgb(0,0,0)" stroke-width="1" />
<line x1="288.000000" y1="212.000000" x2="288.000000" y2="284.000000" stroke="rgb(0,0,0)" stroke-width="1" />
<line x1="288.000000" y1="284.000000" x2="220.000000" y2="284.000000" stroke="rgb(0,0,0)" stroke-width="1" />
<line x1="220.000000" y1="284.000000" x2="220.000000" y2="220.000000" stroke="rgb(0,0,0)" stroke-width="1" />
<line x1="220.000000" y1="220.000000" x2="280.000000" y2="220.000000" stroke="rgb(0,0,0)" stroke-width="1" />
<line x1="280.000000" y1="220.000000" x2="280.000000" y2="276.000000" stroke="rgb(0,0,0)" stroke-width="1" />
<line x1="280.000000" y1="276.000000" x2="228.000000" y2="276.000000" stroke="rgb(0,0,0)" stroke-width="1" />
<line x1="228.000000" y1="276.000000" x2="228.000000" y2="228.000000" stroke="rgb(0,0,0)" stroke-width="1" />
<line x1="228.000000" y1="228.000000" x2="272.000000" y2="228.000000" stroke="rgb(0,0,0)" stroke-width="1" />
<line x1="272.000000" y1="228.000000" x2="272.000000" y2="268.000000" stroke="rgb(0,0,0)" stroke-width="1" />
<line x1="272.000000" y1="268.000000" x2="236.000000" y2="268.000000" stroke="rgb(0,0,0)" stroke-width="1" />
<line x1="236.000000" y1="268.000000" x2="236.000000" y2="236.000000" stroke="rgb(0,0,0)" stroke-width="1" />
<line x1="236.000000" y1="236.000000" x2="264.000000" y2="236.000000" stroke="rgb(0,0,0)" stroke-width="1" />
<line x1="264.000000" y1="236.000000" x2="264.000000" y2="260.000000" stroke="rgb(0,0,0)" stroke-width="1" />
<line x1="264.000000" y1="260.000000" x2="244.000000" y2="260.000000" stroke="rgb(0,0,0)" stroke-width="1" />
<line x1="244.000000" y1="260.000000" x2="244.000000" y2="244.000000" stroke="rgb(0,0,0)" stroke-width="1" />
<line x1="244.000000" y1="244.000000" x2="256.000000" y2="244.000000" stroke="rgb(0,0,0)" stroke-width="1" />
<line x1="256.000000" y1="244.000000" x2="256.000000" y2="252.000000" stroke="rgb(0,0,0)" stroke-width="1" />
</svg>